<?xml version="1.0" encoding="UTF-8"?>
<!DOCTYPE svg PUBLIC "-//W3C//DTD SVG 1.1//EN" "http://www.w3.org/Graphics/SVG/1.1/DTD/svg11.dtd">
<!-- Creator: CorelDRAW 2020 (64-Bit) -->
<svg xmlns="http://www.w3.org/2000/svg" xml:space="preserve" width="72px" height="72px" version="1.1" style="shape-rendering:geometricPrecision; text-rendering:geometricPrecision; image-rendering:optimizeQuality; fill-rule:evenodd; clip-rule:evenodd"
viewBox="0 0 148 210"
 xmlns:xlink="http://www.w3.org/1999/xlink"
 xmlns:xodm="http://www.corel.com/coreldraw/odm/2003">
 <defs>
  <style type="text/css">
   <![CDATA[
    .fil0 {fill:#4A2F7D}
   ]]>
  </style>
 </defs>
 <g id="Слой_x0020_1">
  <metadata id="CorelCorpID_0Corel-Layer"/>
  <g id="_2684144478384">
   <path class="fil0" d="M66.4898 133.8493c4.0972,-3.3637 13.134,-4.4949 18.2409,-4.742 0.8427,6.1689 -0.4326,12.574 -4.1152,17.4845 -1.4923,-1.6608 -0.5478,-1.3604 -2.6279,-2.2723 -3.9595,1.6786 -8.3262,4.1871 -12.9621,4.2785 1.7297,-5.8094 2.8272,-6.8937 5.9619,-11.0589 0.0622,-0.0824 0.1863,-0.2698 0.2691,-0.4109l-4.7667 -3.2789zm18.2407 -10.1021c7.8882,-11.3984 19.5166,-21.4995 33.8977,-25.6076 -1.3284,8.4615 -3.709,15.3001 -8.4751,22.3219 -2.308,3.4004 -12.1414,14.7566 -14.7545,16.1447l-2.1623 -12.1855 -8.5058 -0.6735zm-23.0533 -27.1605c-17.9693,-6.6514 -8.8289,-24.9176 0.5657,-25.8352 5.4321,-0.5305 8.1191,2.3697 11.9672,4.7129 19.1434,-13.8207 26.5813,6.0796 20.897,15.3052 -2.51,4.0739 -5.8276,4.6319 -9.387,6.6474l3.6538 7.6916c-3.0412,6.9857 -12.38,15.8491 -21.0959,14.3883 -10.2072,-1.7108 -13.0891,-16.0218 -4.5718,-21.8121l-2.029 -1.0981zm6.2797 -58.4663c2.5033,-0.5779 8.9531,-1.0156 11.3337,-0.4007 3.4255,0.8846 2.5961,5.5934 2.8533,8.7045l12.3318 5.0712 5.4468 -5.5642c3.984,0.5899 9.5934,5.9615 11.3694,9.3245 -1.7563,3.942 -3.1104,3.5716 -5.2035,7.0304 1.5355,2.6945 5.6383,9.6581 7.2687,11.9003 3.417,0.0355 3.855,-1.1838 7.2986,-0.0024 1.9866,2.6209 1.8574,11.2665 0.8106,14.1649 -2.327,1.5523 -5.986,1.7244 -8.6984,2.6694 -2.5786,0.8983 -5.1348,2.1837 -7.5924,3.2715 6.1633,-25.0517 -17.8701,-45.1607 -41.938,-36.7845 -9.9992,3.48 -17.4561,12.6965 -20.0469,22.9881 -4.7851,19.0088 10.3581,27.9276 7.3986,34.2076 -2.0971,2.5698 -6.6489,6.3185 -10.1068,6.9419 -2.7977,-1.3023 -8.3133,-8.5108 -8.7311,-12.0158 2.2978,-2.5067 2.9245,-3.2965 6.065,-4.643 -0.4292,-2.5563 -1.4411,-4.196 -2.1886,-7.0476 -0.6245,-2.3827 -0.708,-4.2401 -1.2039,-6.5567 -2.4801,-0.3392 -5.4764,-0.2278 -7.5535,-1.5599 -0.8861,-3.9578 -1.3811,-12.3253 1.2099,-15.6455l8.0055 -0.1402c1.623,-6.1918 5.1187,-8.3085 6.097,-11.7068l-4.705 -6.3994c0.8567,-2.918 7.9749,-9.4446 11.3902,-10.1033l5.6734 5.4419 11.6166 -4.9433 1.799 -8.2029zm-59.8441 82.3275c1.5485,10.5909 8.3048,13.4413 16.6698,18.2773 10.4759,6.0567 37.4633,23.5266 45.1433,25.2033 9.7515,2.1292 17.2452,-3.2926 25.1712,-8.0182 7.3635,-4.39 14.4805,-8.8503 21.836,-13.3067 25.3307,-15.3467 23.6642,-12.1182 23.7175,-46.443 0.0141,-9.1411 0.999,-26.3467 -0.1245,-34.5459 -1.4609,-10.661 -8.3028,-13.9794 -16.7537,-18.7202 -9.2556,-5.1922 -38.7536,-23.208 -45.4991,-24.8672 -9.6113,-2.3639 -17.2514,4.0038 -25.0716,8.3808 -7.046,3.9436 -15.0908,8.8235 -21.9655,13.1253 -6.6926,4.188 -15.9478,7.3863 -20.3735,14.2401 -4.7935,7.4238 -3.0673,23.1714 -3.0929,32.1609 -0.027,9.4814 -0.9312,25.7994 0.343,34.5135z"/>
   <path class="fil0" d="M62.0093 81.254c-4.3438,2.3478 -0.5942,10.5086 4.8361,6.8219 3.9877,-2.7075 0.5109,-9.712 -4.8361,-6.8219z"/>
   <path class="fil0" d="M81.9586 88.6067c7.4105,1.3927 7.6787,-6.3798 3.7293,-7.7397 -4.9966,-1.7206 -7.2691,3.4234 -3.7293,7.7397z"/>
   <path class="fil0" d="M75.9657 95.9658c-0.5964,3.5862 0.399,4.8229 4.0052,3.8377 1.5237,-3.6857 -0.3922,-7.4211 -4.0052,-3.8377z"/>
   <path class="fil0" d="M68.8102 94.4028c-1.2049,2.4466 -1.5715,2.9447 -0.0244,5.6153l2.7511 -0.3384c2.1308,-2.8413 1.0044,-5.5463 -2.7267,-5.2769z"/>
  </g>
 </g>
</svg>
